<?xml version="1.0" standalone="no"?><!DOCTYPE svg PUBLIC "-//W3C//DTD SVG 1.1//EN" "http://www.w3.org/Graphics/SVG/1.1/DTD/svg11.dtd"><svg t="1523812789545" class="icon" style="" viewBox="0 0 1024 1024" version="1.1" xmlns="http://www.w3.org/2000/svg" p-id="36900" data-spm-anchor-id="a313x.7781069.0.i86" xmlns:xlink="http://www.w3.org/1999/xlink" width="200" height="200"><defs><style type="text/css"></style></defs><path d="M717.239 151.362c-26.737 0-48.439 21.666-48.439 48.365 0 11.521 4.202 21.92 10.941 30.252l-48.946 66.879c-7.5-4.746-16.339-7.538-25.868-7.538-22.753 0-41.737 19.328-46.883 37.134h-89.775c-5.143-17.807-24.058-37.134-46.88-37.134-26.703 0-48.368 21.612-48.368 48.347 0 8.187 2.246 15.732 5.796 22.508l-36.917 36.903c-7.716-5.181-16.992-8.231-26.953-8.231-26.737 0-48.367 21.663-48.367 48.363 0 26.699 21.629 48.325 48.367 48.325 26.664 0 48.367-21.629 48.367-48.327 0-8.479-2.355-16.303-6.196-23.224l36.701-36.664c7.863 5.4 17.318 6.869 27.571 6.869 22.824 0 41.737-21.008 46.88-38.814h89.775c5.145 17.807 24.093 38.814 46.883 38.814 26.7 0 48.367-20.768 48.367-47.47 0-8.767-2.5-16.433-6.594-23.499l50.976-69.516c5.978 2.645 12.607 4.278 19.563 4.278 26.664 0 48.328-21.572 48.328-48.308 0-26.699-21.664-48.309-48.328-48.309zM314.943 463.141c-14.31 0-25.941-11.631-25.941-25.939 0-14.347 11.631-25.94 25.941-25.94 14.31 0 25.94 11.594 25.94 25.94 0 14.309-11.629 25.939-25.94 25.939zM421.387 363.55c-14.311 0-25.904-11.631-25.904-25.94 0-14.345 11.594-25.939 25.904-25.939 14.346 0 25.977 11.594 25.977 25.939 0 14.31-11.631 25.94-25.977 25.94zM604.925 363.55c-14.346 0-25.94-11.631-25.94-25.94 0-14.345 11.594-25.939 25.94-25.939 14.311 0 25.94 11.594 25.94 25.939 0 14.31-11.629 25.94-25.94 25.94zM717.239 225.701c-14.349 0-25.941-11.665-25.941-25.976 0-14.273 11.594-25.903 25.941-25.903 14.31 0 25.904 11.631 25.904 25.903 0 14.31-11.594 25.976-25.904 25.976zM863.027 67.138h-693.906c-10.072 0-18.621 6.622-18.621 16.694v693.841c0 10.109 8.548 12.868 18.621 12.868h693.906c10.070 0 10.907-2.76 10.907-12.868v-693.84c-0.001-10.072-0.836-16.695-10.907-16.695zM837.203 734.307c0 8.84-8.706 19.508-17.544 19.508h-607.174c-8.804 0-24.146-10.667-24.146-19.508v-607.11c0-8.803 15.342-23.333 24.146-23.333h607.175c8.839 0 17.544 14.529 17.544 23.333v607.11zM765.676 606.351c0 55.61-45.071 100.715-100.719 100.715v0c-55.684 0-100.79-45.105-100.79-100.715v0c0-55.683 45.106-100.787 100.79-100.787v0c55.648 0 100.719 45.104 100.719 100.787v0zM806.182 911.232c0 28.694-32.607 46.25-61.263 46.25h-157.564c-28.729 0-63.692-22.483-63.692-51.139l13.441-160.314c0-28.692 23.259-47.859 51.954-47.859h150.642c28.658 0 51.991 19.168 51.991 47.859l14.492 165.204zM468.013 606.351c0 55.61-45.104 100.715-100.754 100.715v0c-55.685 0-100.79-45.105-100.79-100.715v0c0-55.683 45.105-100.787 100.79-100.787v0c55.648 0 100.754 45.104 100.754 100.787v0zM508.518 911.232c0 28.694-32.642 46.25-61.301 46.25h-157.6c-28.693 0-63.654-22.483-63.654-51.139l13.406-160.314c0-28.692 23.295-47.859 51.99-47.859h150.643c28.695 0 51.954 19.168 51.954 47.859l14.563 165.204z" p-id="36901" data-spm-anchor-id="a313x.7781069.0.i85" fill="#1aad19" class="selected"></path></svg>