<?xml version="1.0" standalone="no"?><!DOCTYPE svg PUBLIC "-//W3C//DTD SVG 1.1//EN" "http://www.w3.org/Graphics/SVG/1.1/DTD/svg11.dtd"><svg t="1525686435639" class="icon" style="" viewBox="0 0 1024 1024" version="1.1" xmlns="http://www.w3.org/2000/svg" p-id="1762" xmlns:xlink="http://www.w3.org/1999/xlink" width="200" height="200"><defs><style type="text/css"></style></defs><path d="M511.9 924.8C91.8 924.8 2.6 524.1 1.7 520.1L0 512l1.7-8.1c0.8-4 90-404.7 510.2-404.7s509.4 400.7 510.2 404.7l1.9 9.1-2.4 9c-0.9 4-110.5 402.8-509.7 402.8zM80.6 511.9c13.7 52.8 102.2 334.2 431.4 334.2 310.8 0 413.7-279.5 431.1-335.1-14.6-55.5-104.2-333.2-431.1-333.2-330.4 0-417.8 281-431.4 334.1z" fill="#8a8a8a" p-id="1763" data-spm-anchor-id="a313x.7781069.0.i0" class=""></path><path d="M511.9 708.6c-108.4 0-196.6-88.2-196.6-196.6s88.2-196.6 196.6-196.6c21.7 0 39.3 17.6 39.3 39.3 0 21.7-17.6 39.3-39.3 39.3-65 0-117.9 52.9-117.9 117.9s52.9 117.9 117.9 117.9 118-52.8 118-117.8c0-24.8-7.6-48.5-21.9-68.5-12.7-17.7-8.6-42.2 9.1-54.9 17.7-12.7 42.2-8.6 54.8 9.1 24 33.5 36.6 73 36.6 114.3 0 108.4-88.2 196.6-196.6 196.6z" fill="#1aad19" p-id="1764" data-spm-anchor-id="a313x.7781069.0.i1" class=""></path></svg>