<?xml version="1.0" standalone="no"?><!DOCTYPE svg PUBLIC "-//W3C//DTD SVG 1.1//EN" "http://www.w3.org/Graphics/SVG/1.1/DTD/svg11.dtd"><svg t="1523811200957" class="icon" style="" viewBox="0 0 1024 1024" version="1.1" xmlns="http://www.w3.org/2000/svg" p-id="19629" xmlns:xlink="http://www.w3.org/1999/xlink" width="200" height="200"><defs><style type="text/css"></style></defs><path d="M914.1248 130.4064h-108.544V934.656H218.4448V130.4064H109.8752a44.8 44.8 0 0 0-44.672 44.672v804.2496c0 24.576 20.1216 44.672 44.672 44.672h804.2496a44.8 44.8 0 0 0 44.672-44.672V175.0784a44.8 44.8 0 0 0-44.672-44.672z" fill="#1aad19" p-id="19630" data-spm-anchor-id="a313x.7781069.0.i50" class="selected"></path><path d="M218.4448 540.0064V934.656h587.136V130.4064H218.4448v408.9088z" fill="#5FB25F" p-id="19631"></path><path d="M231.7056 538.5728v377.472h560.5888V130.4064H231.7056z" fill="#FFFFFF" p-id="19632"></path><path d="M655.2576 92.16H382.6944a29.44 29.44 0 0 0-27.6224 19.6352h327.7824a29.3888 29.3888 0 0 0-27.5968-19.6352zM382.6944 151.4496h272.5632c16.3584 0 29.6192-13.2608 29.6192-29.6448 0-3.5328-0.8704-6.8608-2.0224-10.0096H355.072a29.5424 29.5424 0 0 0-2.0224 10.0096c0 16.3584 13.2864 29.6448 29.6448 29.6448z" fill="#F8FCFF" p-id="19633"></path><path d="M706.6368 77.0304c0-9.1904-9.2928-16.6656-20.7872-16.6656h-147.6608a22.8352 22.8352 0 0 1-21.7088 15.9488 22.8096 22.8096 0 0 1-21.7088-15.9488h-154.5984c-11.4688 0-20.7872 7.4496-20.7872 16.6656v34.7648h387.2768V77.0304zM319.3856 111.7952h387.2768v30.464H319.3856z" fill="#BDC4C8" p-id="19634"></path><path d="M319.3856 143.6672c0 9.1904 9.2928 16.6656 20.7872 16.6656h345.7024c11.4944 0 20.7872-7.4496 20.7872-16.6656v-1.408H319.3856v1.408z" fill="#A0A5A7" p-id="19635"></path><path d="M516.48 0a53.4272 53.4272 0 1 0 0 106.88 53.4272 53.4272 0 0 0 0-106.88z m0 76.3392a22.912 22.912 0 1 1 0-45.824 22.912 22.912 0 0 1 0 45.824z" fill="#BDC4C8" p-id="19636"></path><path d="M357.4272 334.1056l-21.0688-21.0688-15.7952 15.7952 36.864 36.864 57.9072-57.9328-15.7952-15.7952zM463.0528 313.7024h243.6096v22.3488h-243.6096z" fill="#57B557" p-id="19637"></path><path d="M332.5696 399.8208h70.7328v70.7328h-70.7328zM463.0528 425.4208h243.6096v22.3488h-243.6096zM332.5696 623.2064h70.7328v70.7328h-70.7328zM463.0528 648.8064h243.6096v22.3488h-243.6096zM332.5696 734.9248h70.7328v70.7328h-70.7328zM463.0528 760.5248h243.6096v22.3488h-243.6096z" fill="#D5D5D5" p-id="19638"></path><path d="M357.4272 556.1088l-21.0688-21.0688-15.7952 15.7952 36.864 36.864 57.9072-57.9328-15.7952-15.7952zM463.0528 535.7056h243.6096v22.3488h-243.6096z" fill="#DD3A4E" p-id="19639"></path></svg>