<?xml version="1.0" standalone="no"?><!DOCTYPE svg PUBLIC "-//W3C//DTD SVG 1.1//EN" "http://www.w3.org/Graphics/SVG/1.1/DTD/svg11.dtd"><svg t="1523812676312" class="icon" style="" viewBox="0 0 1024 1024" version="1.1" xmlns="http://www.w3.org/2000/svg" p-id="36227" xmlns:xlink="http://www.w3.org/1999/xlink" width="200" height="200"><defs><style type="text/css"></style></defs><path d="M989.184 964.096H39.424c-8.704 0-15.36-6.656-15.36-15.36v-356.864c0-5.632 3.072-10.752 8.192-13.312l288.768-167.424c3.072-1.536 7.168-2.048 10.752-1.536l312.32 73.216c3.584 1.024 7.68 0.512 11.264-1.536l326.144-199.168c10.24-6.144 23.04 1.536 23.04 13.312v653.312c0 8.704-7.168 15.36-15.36 15.36z" fill="#bfbfbf" p-id="36228" data-spm-anchor-id="a313x.7781069.0.i78" class=""></path><path d="M347.136 431.104v511.488c0 11.776-9.728 21.504-21.504 21.504-11.776 0-21.504-9.728-21.504-21.504V431.104c0-11.776 9.728-21.504 21.504-21.504 12.288 0.512 21.504 10.24 21.504 21.504z" fill="#1aad19" p-id="36229" data-spm-anchor-id="a313x.7781069.0.i82" class="selected"></path><path d="M898.048 41.472l110.592 18.944c9.216 1.536 15.36 10.24 13.824 19.456-1.536 9.216-10.24 15.36-19.456 13.824l-110.592-18.944c-9.216-1.536-15.36-10.24-13.824-19.456 2.048-9.216 10.752-15.36 19.456-13.824z" fill="#1aad19" p-id="36230" data-spm-anchor-id="a313x.7781069.0.i71" class="selected"></path><path d="M947.2 173.568l44.032-103.424c3.584-8.704 13.312-12.288 22.016-8.704 8.704 3.584 12.288 13.312 8.704 22.016L977.92 186.88c-3.584 8.704-13.312 12.288-22.016 8.704-8.192-3.584-12.288-13.312-8.704-22.016z" fill="#1aad19" p-id="36231" data-spm-anchor-id="a313x.7781069.0.i72" class="selected"></path><path d="M58.88 589.824v353.28c0 11.776-9.728 21.504-21.504 21.504-11.776 0-21.504-9.728-21.504-21.504v-353.28c0-11.776 9.728-21.504 21.504-21.504 11.776 0.512 21.504 9.728 21.504 21.504zM671.232 498.688v444.416c0 11.776-9.728 21.504-21.504 21.504-11.776 0-21.504-9.728-21.504-21.504V498.688c0-11.776 9.728-21.504 21.504-21.504 11.776 0 21.504 9.728 21.504 21.504z" fill="#1aad19" p-id="36232" data-spm-anchor-id="a313x.7781069.0.i81" class="selected"></path><path d="M307.2 233.472l-272.896 138.24c-10.24 5.12-23.552 1.024-28.672-9.216s-1.024-23.552 9.216-28.672l272.896-137.728c10.24-5.12 23.552-1.024 28.672 9.216s1.024 23.04-9.216 28.16z" fill="#1aad19" p-id="36233" data-spm-anchor-id="a313x.7781069.0.i69" class="selected"></path><path d="M627.712 311.808l-335.36-76.8c-11.264-2.56-18.432-13.824-15.872-25.6 2.56-11.264 13.824-18.432 25.6-15.872l335.36 76.8c11.264 2.56 18.432 13.824 15.872 25.6-2.56 11.264-14.336 18.432-25.6 15.872z" fill="#1aad19" p-id="36234" data-spm-anchor-id="a313x.7781069.0.i68" class="selected"></path><path d="M977.408 116.224l-333.824 193.024c-10.24 5.632-23.04 2.56-29.184-7.68-5.632-10.24-2.56-23.04 7.68-29.184l333.824-193.024c10.24-5.632 23.04-2.56 29.184 7.68 6.144 10.24 2.56 23.552-7.68 29.184z" fill="#1aad19" p-id="36235" data-spm-anchor-id="a313x.7781069.0.i70" class="selected"></path><path d="M1010.176 305.152v637.44c0 11.776-9.728 21.504-21.504 21.504-11.776 0-21.504-9.728-21.504-21.504V305.152c0-11.776 9.728-21.504 21.504-21.504 11.776 0.512 21.504 10.24 21.504 21.504z" fill="#1aad19" p-id="36236" data-spm-anchor-id="a313x.7781069.0.i80" class="selected"></path><path d="M318.245695 452.532356a35.328 35.328 0 1 0 15.735492-68.881526 35.328 35.328 0 1 0-15.735492 68.881526Z" fill="#474747" p-id="36237"></path><path d="M321.78048 437.05897a19.456 19.456 0 1 0 8.665923-37.934753 19.456 19.456 0 1 0-8.665923 37.934753Z" fill="#bfbfbf" p-id="36238" data-spm-anchor-id="a313x.7781069.0.i75" class=""></path><path d="M29.420097 621.450836a35.328 35.328 0 1 0 15.735492-68.881526 35.328 35.328 0 1 0-15.735492 68.881526Z" fill="#474747" p-id="36239"></path><path d="M32.954882 605.97745a19.456 19.456 0 1 0 8.665923-37.934753 19.456 19.456 0 1 0-8.665923 37.934753Z" fill="#bfbfbf" p-id="36240" data-spm-anchor-id="a313x.7781069.0.i74" class=""></path><path d="M641.784304 524.022306a35.328 35.328 0 1 0 15.735492-68.881526 35.328 35.328 0 1 0-15.735492 68.881526Z" fill="#474747" p-id="36241"></path><path d="M645.319089 508.54892a19.456 19.456 0 1 0 8.665923-37.934753 19.456 19.456 0 1 0-8.665923 37.934753Z" fill="#bfbfbf" p-id="36242" data-spm-anchor-id="a313x.7781069.0.i76" class=""></path><path d="M980.70537 331.512263a35.328 35.328 0 1 0 15.735492-68.881526 35.328 35.328 0 1 0-15.735492 68.881526Z" fill="#474747" p-id="36243"></path><path d="M984.240155 316.038877a19.456 19.456 0 1 0 8.665923-37.934754 19.456 19.456 0 1 0-8.665923 37.934754Z" fill="#bfbfbf" p-id="36244" data-spm-anchor-id="a313x.7781069.0.i77" class=""></path></svg>